<svg width="186" height="50" xmlns="http://www.w3.org/2000/svg"><g fill="none" fill-rule="evenodd"><path d="M23.26 49.525h6.505l2.305-5.31h12.753l2.305 5.31h6.511L38.45 17.247 23.26 49.525zm11.178-10.707 4.011-9.094 3.993 9.091-8.004.003z" fill="#0A3356" fill-rule="nonzero"/><path fill="#0A3356" d="M185.76 23.438v-6.191h-21.045v32.278h21.044v-6.317h-14.142v-7.23h11.815V29.79h-11.815v-6.352zM148.535 17.247h-6.921v32.278h20.253v-6.317h-13.332zM125.272 17.247h-6.918v32.278h20.254v-6.317h-13.336zM6.92 17.247H0v32.278h20.253v-6.317H6.921zM74.165 30.036c-4.174-.943-6.097-1.317-6.097-3.95 0-2.634 2.911-3.178 4.888-3.178 1.977 0 4.835.273 7.526 2.574l3.296-5.208s-3.463-3.344-10.702-3.344c-7.24 0-11.587 4.331-11.587 9.925 0 5.538 4.035 8.09 10.872 9.429 5.726 1.122 5.98 2.357 5.98 4.274 0 1.917-3.018 3.259-6.093 3.262-3.847 0-7.91-3.699-7.91-3.699l-3.737 5.32s4.12 4.4 11.961 4.4 12.248-3.68 12.248-10.587c0-6.908-6.487-8.288-10.645-9.218z"/><path fill="#E2A615" d="m100.161 17.247-2.91 6.093 1.289 6.796 6.84.866-6.044 3.335 1.29 6.805-5.028-4.74-6.025 3.345-4.605 9.778h6.505l2.29-5.306h12.806l2.27 5.306h6.51z"/><path d="M7.902 6.657c-.103 2.12-1.841 3.786-3.951 3.786-2.11 0-3.848-1.666-3.951-3.786V.475h1.232v6.037a2.739 2.739 0 0 0 2.73 2.747c1.508 0 2.73-1.23 2.73-2.747V.475h1.22l-.01 6.182zM17.47.475h1.2v9.807h-1.366l-5.188-7.9v7.903h-1.198V.475h1.37l5.181 7.89zM22.785 10.285h-1.266V.475h1.266zM29 10.285l-4-9.81h1.25l3.418 8.21 3.418-8.21h1.25l-4 9.81zM37.593 1.6v3.058h4.494v1.126h-4.494v3.378h4.654v1.123h-5.855V.475h5.774V1.6z" fill="#0A3356"/><path d="M48.035.475c1.877 0 2.992 1.147 2.992 2.82a2.641 2.641 0 0 1-2.348 2.752l2.745 4.238h-1.408l-2.689-4.169h-1.514v4.169H44.62V.475h3.415zM45.822 4.94h2.19c1.112 0 1.825-.674 1.825-1.649 0-.974-.804-1.645-1.815-1.645h-2.19l-.01 3.294z" fill="#0A3356" fill-rule="nonzero"/><path d="M55.914 5.63c-1.35-.396-2.451-1.182-2.451-2.597 0-1.788 1.387-2.732 2.868-2.716a3.421 3.421 0 0 1 2.364.947l-.734.825a2.303 2.303 0 0 0-1.63-.613c-.871.028-1.636.568-1.636 1.513 0 .834.581 1.31 1.701 1.655l.722.23c1.244.402 2.217 1.264 2.217 2.802 0 1.73-1.427 2.751-3.042 2.767a4.047 4.047 0 0 1-2.97-1.264l.73-.865c.567.64 1.38.997 2.228.976 1.023-.032 1.885-.663 1.885-1.61 0-.948-.591-1.463-1.577-1.81l-.675-.24zM62.975 10.285h-1.266V.475h1.266z" fill="#0A3356"/><path d="M69.506.476a4.894 4.894 0 0 1 4.343 2.416 4.913 4.913 0 0 1 0 4.976 4.894 4.894 0 0 1-4.343 2.415H65.98V.476h3.525zm-2.323 8.631h2.323a3.72 3.72 0 0 0 3.35-1.817c.7-1.176.7-2.641 0-3.817a3.72 3.72 0 0 0-3.35-1.818h-2.323v7.452zM83.531 10.285l-1.187-2.792h-4.561l-1.184 2.792h-1.283l4.087-9.81h1.324l4.083 9.81h-1.279zm-1.668-3.997-1.793-4.36-1.804 4.36h3.597zM90.392.476a4.894 4.894 0 0 1 4.343 2.416 4.913 4.913 0 0 1 0 4.976 4.894 4.894 0 0 1-4.343 2.415h-3.525V.476h3.525zm-2.323 8.631h2.323a3.72 3.72 0 0 0 3.35-1.817c.7-1.176.7-2.641 0-3.817a3.72 3.72 0 0 0-3.35-1.818h-2.323v7.452zM105.105.476a4.896 4.896 0 0 1 4.345 2.416 4.912 4.912 0 0 1 0 4.976 4.896 4.896 0 0 1-4.345 2.415h-3.523V.476h3.523zm-2.323 8.631h2.323a3.722 3.722 0 0 0 3.352-1.817c.699-1.176.699-2.641 0-3.817a3.722 3.722 0 0 0-3.352-1.818h-2.323v7.452z" fill="#0A3356" fill-rule="nonzero"/><path fill="#0A3356" d="M113.543 1.6v3.058h4.482v1.126h-4.482v3.378h4.653v1.123h-5.854V.475h5.76V1.6z"/></g></svg>